<svg width="11" height="8" viewBox="0 0 11 8" fill="none" xmlns="http://www.w3.org/2000/svg">
<path d="M9.77364 0.913539C9.59882 0.91835 9.43291 0.985832 9.31103 1.10169L3.84056 6.41306L1.62479 4.36649C1.56279 4.30684 1.48853 4.25922 1.40635 4.22641C1.32417 4.19361 1.23573 4.17628 1.14621 4.17544C1.05669 4.17459 0.967889 4.19026 0.885006 4.22151C0.802122 4.25277 0.726824 4.29898 0.663521 4.35745C0.600217 4.41592 0.550181 4.48547 0.516342 4.56203C0.482504 4.63858 0.465543 4.7206 0.466454 4.80328C0.467365 4.88597 0.486128 4.96765 0.521646 5.04356C0.557164 5.11946 0.608722 5.18805 0.673301 5.24532L3.36481 7.73131C3.49101 7.84782 3.66213 7.91327 3.84056 7.91327C4.01899 7.91327 4.19011 7.84782 4.31631 7.73131L10.2625 1.98052C10.3598 1.89323 10.4262 1.78083 10.4531 1.65808C10.4799 1.53532 10.4661 1.40792 10.4132 1.29258C10.3604 1.17724 10.271 1.07934 10.1569 1.0117C10.0428 0.944062 9.90918 0.909847 9.77364 0.913539Z" fill="#00D072"/>
</svg>
