<svg width="28" height="27" viewBox="0 0 28 27" fill="none" xmlns="http://www.w3.org/2000/svg">
<circle cx="13.9664" cy="13.7887" r="13.1728" fill="#3592E6"/>
<g filter="url(#filter0_d_1_360)">
<path d="M14.6259 18.0707C14.6259 18.4344 14.331 18.7293 13.9673 18.7293C13.6035 18.7293 13.3086 18.4344 13.3086 18.0707H13.9673H14.6259ZM13.5016 9.04265C13.7588 8.78544 14.1758 8.78544 14.433 9.04265L18.6246 13.2342C18.8818 13.4914 18.8818 13.9084 18.6246 14.1657C18.3673 14.4229 17.9503 14.4229 17.6931 14.1657L13.9673 10.4398L10.2415 14.1657C9.98425 14.4229 9.56722 14.4229 9.31001 14.1657C9.0528 13.9084 9.0528 13.4914 9.31001 13.2342L13.5016 9.04265ZM13.9673 18.0707H13.3086V13.3389H13.9673H14.6259V18.0707H13.9673ZM13.9673 13.3389H13.3086L13.3086 9.50838H13.9673H14.6259L14.6259 13.3389H13.9673Z" fill="white"/>
</g>
<defs>
<filter id="filter0_d_1_360" x="1.40498" y="3.22723" width="25.1246" height="25.1246" filterUnits="userSpaceOnUse" color-interpolation-filters="sRGB">
<feFlood flood-opacity="0" result="BackgroundImageFix"/>
<feColorMatrix in="SourceAlpha" type="matrix" values="0 0 0 0 0 0 0 0 0 0 0 0 0 0 0 0 0 0 127 0" result="hardAlpha"/>
<feOffset dy="2"/>
<feGaussianBlur stdDeviation="2"/>
<feComposite in2="hardAlpha" operator="out"/>
<feColorMatrix type="matrix" values="0 0 0 0 0 0 0 0 0 0 0 0 0 0 0 0 0 0 0.25 0"/>
<feBlend mode="normal" in2="BackgroundImageFix" result="effect1_dropShadow_1_360"/>
<feBlend mode="normal" in="SourceGraphic" in2="effect1_dropShadow_1_360" result="shape"/>
</filter>
</defs>
</svg>
